<svg xmlns="http://www.w3.org/2000/svg" viewBox="0 0 553.91 502"><defs><style>.a{fill:#2e3338;}</style></defs><title>Fichier 1</title><path class="a" d="M458.11,495.6l-6.7-6.5,2.4-2.5c2.7-2.9,2.3-4.3-.7-2.7a12.15,12.15,0,0,1-2.6,1.1c-.3,0-.6-5.4-.6-12s-.4-12-.8-12-3.5,7.9-6.6,17.5-6.5,18.4-7.5,19.6l-1.7,2.2-3.3-3.9a69,69,0,0,1-5.9-9.4c-2.5-5.1-2.7-6.3-2.6-17.7.1-6.8-.1-12.1-.5-11.9s-3.3,4.7-6.6,10-6.5,9.8-7.3,10.1c-2.1.8-3.7-.9-6.3-6.8-1.9-4.2-2.3-6.8-2.3-13.4.1-4.6.1-8.3-.1-8.3s-2.6,1.3-5.6,3c-7.6,4.2-8.5,4-10.4-2.2a45.31,45.31,0,0,1-1.5-6.5c0-1.6-1.1-1.6-4.6-.1-2.4,1.1-2.9,1-5.5-2-1.6-1.8-2.9-3.8-2.9-4.6,0-1.1-.9-1.1-4.5-.3-2.5.6-4.8.8-5.1.4s-.1-2,.6-3.6c1.5-3.8.7-5.1-3.2-5.1h-3.2l2.7-2.8c1.5-1.5,2.7-3.1,2.7-3.5,0-1.6-11.6-.6-17.2,1.4-6.3,2.4-8,2-5.9-1.2,1.8-3,.8-3.4-5-2.1a41.38,41.38,0,0,1-7.5,1.2c-2.1,0-2.3-.4-1.8-2.4l.6-2.4-6.1,1.6c-4.8,1.3-6.3,1.4-7.3.4s-.9-1.5,0-2.4c2.9-2.9,1.3-3.6-5-2.2-8.8,1.9-8.9,1.8-8.2-1.2.6-2.2.4-2.5-1.2-2-3.8,1.1-10.9,2.5-11.2,2.1-.2-.2.4-1.8,1.3-3.6l1.7-3.2-4.3.7a64,64,0,0,0-6.6,1.3c-1.8.4-2.3.1-2.3-1.5,0-1.9-.4-2-5.5-1.5-4.7.5-5.5.3-5.5-1.1s-1-1.6-5-1.6c-4.2,0-4.8-.3-4.3-1.6s.2-1.6-1.8-1.1c-1.3.3-4.1.9-6.3,1.3l-3.8.7,1.8-2.8,1.8-2.8-5.2.7c-5.3.7-6.5-.1-3.7-2.4,2.6-2.2.5-3.1-5.8-2.5l-6.2.6,2.8-2.5c4-3.7,3.4-4.6-3-4.6h-5.6l2.3-2.6c2.1-2.1,2.2-2.7,1-3.4-3.5-2.2-6.9-1-15.1,5.6-19.6,15.5-50.9,34.2-60.6,36-3.2.6-3.3.5-3.3-2.6v-3.2l-9.7.7c-9.7.7-9.8.7-8.1-1.2a8.4,8.4,0,0,0,1.8-2.6c0-.4-4.5-.7-10-.7h-10.1l2.2-2.9c2.6-3.6,1.9-6.6-1.4-5.8-1.2.3-6.8.9-12.5,1.3-9.8.7-10.3.6-10-1.2.3-1.6-.2-1.9-3.5-1.6l-3.9.4,1.6-2.4c1.9-2.9,1.2-4-2-3.2-1.9.5-2.2.3-1.7-1.6s.3-2-2.1-1.4c-4.8,1.2-2.7-1.2,7.4-8.1,5.5-3.7,10-7.3,10-8s-3.1-1.6-8.2-2.3c-4.5-.7-8.4-1.5-8.7-1.8s1.9-2.9,4.9-5.6c5-4.7,5.3-5.2,3.6-6.2a18.71,18.71,0,0,1-3.5-2.8,5,5,0,0,0-3.3-1.8c-5.5,0,2.9-5.3,10.4-6.6,6.4-1.1,70.5-15.6,84.7-19.3,8.9-2.2,14.6-4.1,14.9-5s-.2-1.2-1.9-.8c-1.3.3-6.8.9-12.1,1.3l-9.8.7v-2.5c0-2.5,0-2.5-5.6-1.5-3,.5-5.7.7-6,.4s-.1-2.2.5-4.3c1.4-5.2.3-6-5.5-4-5.3,1.8-5.9,1.6-5.9-2.2,0-2-.6-2.8-2.2-3-2.7-.4-2.7-.8-.8-4.2,2.3-4,1.9-4.5-3.5-4.2-5.6.4-6.2-.5-3.5-5.9.9-1.6,1.3-3.3,1.1-3.8s-2.8-1.1-5.6-1.5l-5-.7v-4.8c0-5.3-.8-6.1-6.2-6.1-2.8,0-3-.2-2.4-2.8,2.2-9.6,2.4-9-3.2-9.8l-5-.6,2-4.4c1-2.4,1.7-4.8,1.4-5.2s-1.9-.7-3.7-.4c-3,.4-3.1.3-2.6-2.4a46.15,46.15,0,0,1,1.2-5c.6-1.8.1-2.3-3.9-3.4-2.5-.7-4.6-1.5-4.6-1.7a24.79,24.79,0,0,1,2.6-3.8c3.3-4.3,2.4-5.8-2.7-5-4.6.8-5.1-.7-1.8-4.9,2.4-3,1.9-5.6-1-5.6-3.2,0-3.3-1.6-.5-5,1.5-1.7,2.5-3.2,2.3-3.4a49.48,49.48,0,0,0-6.9-1.2l-6.5-.9,5.9-4.5c7.5-5.7,8.1-7,2.4-5.9-2.4.4-5.3.8-6.6.9h-2.2l2.7-4.2c1.9-2.9,2.4-4.3,1.5-4.6-1.8-.6-1.4-2,.8-2.7,1.5-.5,1.9-1.2,1.4-3s.1-2.8,3-4.7c4.2-2.7,4.8-5.1,1.1-4.3-1.4.3-3.6.7-5,1-3.4.7-5-.2-3.4-2.1,1.3-1.6,1.3-1.6-7.5-3.2-3.2-.7-7-1.9-8.4-2.8l-2.6-1.7,2.9-2.3c1.6-1.3,2.7-2.5,2.5-2.7s-3.1-1.1-6.2-2-6-2.3-6.4-2.9.5-2.1,1.9-3.3a9.12,9.12,0,0,0,2.7-2.6c0-.4-2.9-.9-6.4-1.3-7-.7-12.6-2.3-12.6-3.6,0-.5,2.2-1.9,4.9-3.2,5.6-2.5,5.7-3.8.3-3.8-5.8,0-21.7-3.6-24.6-5.6-3.3-2.1-2.2-3,4.9-3.9,16.9-2,26.5-4,26.5-5.5,0-.6-2.5-1-5.4-1-11.1,0-41.9-4.9-44-7-3.4-3.4,10-5.4,48.7-7.5,41.1-2.2,42.5-2.9,13.7-7-39.1-5.5-58.6-9.8-59.7-13.1-.6-1.8,3.2-2.4,22.2-3,16.2-.6,51.7.6,66.4,2.3,4,.4,5.3.3,4.9-.7-.2-.7-8-3.2-17.3-5.5-31.7-8-46.4-12.6-56.9-17.8-5.2-2.5-5.7-3-4.1-4,2.5-1.4,22.6-.2,39.5,2.3,10.7,1.6,46,8.3,55.3,10.4.9.2,1.7,0,1.7-.4s-2.6-1.6-5.7-2.5c-17.4-5-61.4-25.1-70.8-32.3-13.1-10-.8-9.6,33,1,11.9,3.7,39.6,13.6,47.7,17,1.8.8,6.5,2.5,10.3,3.8s7.6,2.5,8.3,2.8,1.2,0,1.2-.6-4.8-3.6-10.8-6.8c-21-11.2-47.6-28.3-60-38.7a58,58,0,0,1-8.8-9.2C55.51,5.1,54.71,0,57.71,0c3.5,0,53.5,26.1,63.2,33a12.29,12.29,0,0,0,3.5,2c.6,0,8.7,4.7,25.1,14.7,4,2.4,7.4,4.3,7.8,4.3,2.6,0-1.6-3.5-15.6-12.8-9-6-19.7-13.6-23.9-16.9C107.41,16,100.21,7,103.91,7c4.9,0,27.7,10.6,44.1,20.6,19.1,11.5,48.2,32.5,67.6,48.7,42.9,36,68.1,58.6,75.3,67.7,2.4,3,3.4,6,5.4,15.6,2.7,13.9,6.6,24.1,14.3,37.9,11.1,20,18,29.4,32.2,43.6,11.6,11.6,15.6,14.8,26.8,21.9,7.3,4.5,13.7,8.7,14.2,9.4s.5,3.7.1,7.1-1.1,9.8-1.4,14.4c-.6,7.7-.5,8.3.9,7.1a30.37,30.37,0,0,0,4.2-6.4c2.67-5.15,7.06-12.76,12.5-16.2a24.11,24.11,0,0,1,9.8-3.23c6.18-1,10,.13,17,1a135.67,135.67,0,0,0,18.17.91c8.32,0,22.34-.18,24.88,2.54a7.34,7.34,0,0,1,1.42,3.46c.6,2.6.6,2.7-5.8,3.1-5.1.3-8.4,1.4-16.2,5.1a123.52,123.52,0,0,0-14.4,8.1c-6.4,4.6-12.2,7.4-18.1,8.7-2.7.6-6,1.9-7.2,2.9-2.3,1.8-2.2,1.8,6.2,1.7,8,0,9.2.3,21.2,5.1,7,2.9,21.2,7.7,31.5,10.7s21,6.5,23.8,7.7c9.5,4.3,61.5,45.1,61.5,48.2,0,1.5-5.3,4.3-9.9,5.2-4.9,1-5.4,2.4-3.1,9.5,3,9.4,3.6,17.8,1.6,21.6-2.3,4.6-6.3,7.3-10.5,7.3h-3.7l-1.1,17.6c-.6,9.7-1.6,18.1-2.1,18.6-1.7,1.7-7.7,0-13.3-3.7a59.11,59.11,0,0,0-5.5-3.5c-.2,0-.4,6.2-.4,13.8,0,16.6-.5,17.9-6.7,16.3-4.5-1.2-8.5-5.2-12.6-12.3-3.1-5.3-7.7-19.7-7.7-24.1-.1-6.6-1.9-.1-3.9,14.3-4.2,29.1-6,37-8.7,37C465.41,502,461.71,499.1,458.11,495.6Zm-38.2-215.1c-.2-1.4-3.5-2.5-5-1.5a1.36,1.36,0,0,0-.5,1.9C415.21,282.3,420,281.9,419.91,280.5Z"/></svg>